<svg width="403" height="106" viewBox="0 0 403 106" fill="none" xmlns="http://www.w3.org/2000/svg">
<path opacity="0.5" d="M135.75 76.582C135.834 76.714 135.876 76.852 135.876 76.996C135.876 77.176 135.804 77.326 135.66 77.446C135.528 77.554 135.372 77.608 135.192 77.608C134.916 77.608 134.7 77.488 134.544 77.248L132.132 73.432C131.82 72.94 131.496 72.604 131.16 72.424C130.824 72.232 130.368 72.136 129.792 72.136H127.524V76.834C127.524 77.062 127.458 77.248 127.326 77.392C127.194 77.524 127.02 77.59 126.804 77.59C126.576 77.59 126.396 77.524 126.264 77.392C126.132 77.248 126.066 77.062 126.066 76.834V65.53C126.066 65.314 126.132 65.14 126.264 65.008C126.408 64.876 126.594 64.81 126.822 64.81H131.286C132.666 64.81 133.716 65.116 134.436 65.728C135.168 66.34 135.534 67.24 135.534 68.428C135.534 69.436 135.24 70.246 134.652 70.858C134.076 71.47 133.248 71.842 132.168 71.974C132.468 72.07 132.738 72.226 132.978 72.442C133.218 72.658 133.458 72.958 133.698 73.342L135.75 76.582ZM131.16 70.912C132.144 70.912 132.876 70.708 133.356 70.3C133.848 69.892 134.094 69.274 134.094 68.446C134.094 67.63 133.854 67.024 133.374 66.628C132.894 66.232 132.156 66.034 131.16 66.034H127.524V70.912H131.16ZM143.802 77.5C143.574 77.5 143.388 77.434 143.244 77.302C143.112 77.17 143.046 76.996 143.046 76.78V65.53C143.046 65.314 143.112 65.14 143.244 65.008C143.388 64.876 143.574 64.81 143.802 64.81H150.534C150.75 64.81 150.918 64.864 151.038 64.972C151.158 65.08 151.218 65.23 151.218 65.422C151.218 65.614 151.158 65.764 151.038 65.872C150.918 65.98 150.75 66.034 150.534 66.034H144.504V70.444H150.174C150.39 70.444 150.558 70.498 150.678 70.606C150.798 70.714 150.858 70.864 150.858 71.056C150.858 71.248 150.798 71.398 150.678 71.506C150.558 71.614 150.39 71.668 150.174 71.668H144.504V76.276H150.534C150.75 76.276 150.918 76.33 151.038 76.438C151.158 76.534 151.218 76.684 151.218 76.888C151.218 77.08 151.158 77.23 151.038 77.338C150.918 77.446 150.75 77.5 150.534 77.5H143.802ZM162.214 77.644C161.314 77.644 160.45 77.512 159.622 77.248C158.806 76.972 158.152 76.606 157.66 76.15C157.48 75.982 157.39 75.772 157.39 75.52C157.39 75.352 157.438 75.208 157.534 75.088C157.63 74.956 157.744 74.89 157.876 74.89C158.032 74.89 158.2 74.956 158.38 75.088C159.496 75.952 160.768 76.384 162.196 76.384C163.228 76.384 164.02 76.186 164.572 75.79C165.124 75.394 165.4 74.83 165.4 74.098C165.4 73.678 165.268 73.342 165.004 73.09C164.74 72.826 164.392 72.616 163.96 72.46C163.528 72.304 162.946 72.142 162.214 71.974C161.23 71.746 160.42 71.506 159.784 71.254C159.16 71.002 158.65 70.642 158.254 70.174C157.87 69.706 157.678 69.094 157.678 68.338C157.678 67.618 157.87 66.982 158.254 66.43C158.65 65.866 159.196 65.434 159.892 65.134C160.6 64.822 161.404 64.666 162.304 64.666C163.144 64.666 163.924 64.798 164.644 65.062C165.376 65.314 165.988 65.68 166.48 66.16C166.672 66.352 166.768 66.562 166.768 66.79C166.768 66.958 166.72 67.108 166.624 67.24C166.528 67.36 166.414 67.42 166.282 67.42C166.15 67.42 165.976 67.354 165.76 67.222C165.172 66.742 164.626 66.406 164.122 66.214C163.618 66.022 163.012 65.926 162.304 65.926C161.308 65.926 160.534 66.136 159.982 66.556C159.43 66.964 159.154 67.54 159.154 68.284C159.154 68.92 159.394 69.4 159.874 69.724C160.366 70.036 161.116 70.312 162.124 70.552C163.216 70.816 164.074 71.062 164.698 71.29C165.322 71.506 165.838 71.836 166.246 72.28C166.666 72.724 166.876 73.318 166.876 74.062C166.876 74.77 166.678 75.394 166.282 75.934C165.898 76.474 165.352 76.894 164.644 77.194C163.936 77.494 163.126 77.644 162.214 77.644ZM177.73 77.59C177.502 77.59 177.316 77.524 177.172 77.392C177.04 77.248 176.974 77.062 176.974 76.834V66.07H173.104C172.888 66.07 172.72 66.016 172.6 65.908C172.48 65.8 172.42 65.644 172.42 65.44C172.42 65.236 172.48 65.08 172.6 64.972C172.72 64.864 172.888 64.81 173.104 64.81H182.338C182.554 64.81 182.722 64.864 182.842 64.972C182.962 65.08 183.022 65.236 183.022 65.44C183.022 65.644 182.962 65.8 182.842 65.908C182.722 66.016 182.554 66.07 182.338 66.07H178.468V76.834C178.468 77.062 178.402 77.248 178.27 77.392C178.138 77.524 177.958 77.59 177.73 77.59ZM200.238 76.654C200.286 76.75 200.31 76.852 200.31 76.96C200.31 77.14 200.238 77.29 200.094 77.41C199.962 77.53 199.8 77.59 199.608 77.59C199.308 77.59 199.098 77.446 198.978 77.158L197.7 74.242H190.914L189.618 77.158C189.498 77.446 189.288 77.59 188.988 77.59C188.796 77.59 188.628 77.53 188.484 77.41C188.34 77.278 188.268 77.122 188.268 76.942C188.268 76.846 188.292 76.75 188.34 76.654L193.488 65.206C193.56 65.038 193.668 64.912 193.812 64.828C193.956 64.744 194.112 64.702 194.28 64.702C194.46 64.702 194.622 64.75 194.766 64.846C194.91 64.93 195.018 65.05 195.09 65.206L200.238 76.654ZM191.454 73.018H197.16L194.298 66.556L191.454 73.018ZM211.981 77.644C210.325 77.644 209.071 77.212 208.219 76.348C207.367 75.484 206.941 74.212 206.941 72.532V65.476C206.941 65.248 207.007 65.068 207.139 64.936C207.271 64.792 207.451 64.72 207.679 64.72C207.895 64.72 208.069 64.792 208.201 64.936C208.333 65.068 208.399 65.248 208.399 65.476V72.658C208.399 73.894 208.699 74.824 209.299 75.448C209.911 76.072 210.805 76.384 211.981 76.384C213.157 76.384 214.045 76.072 214.645 75.448C215.245 74.824 215.545 73.894 215.545 72.658V65.476C215.545 65.248 215.611 65.068 215.743 64.936C215.887 64.792 216.067 64.72 216.283 64.72C216.511 64.72 216.691 64.792 216.823 64.936C216.955 65.068 217.021 65.248 217.021 65.476V72.532C217.021 74.2 216.589 75.472 215.725 76.348C214.873 77.212 213.625 77.644 211.981 77.644ZM234.381 76.582C234.465 76.714 234.507 76.852 234.507 76.996C234.507 77.176 234.435 77.326 234.291 77.446C234.159 77.554 234.003 77.608 233.823 77.608C233.547 77.608 233.331 77.488 233.175 77.248L230.763 73.432C230.451 72.94 230.127 72.604 229.791 72.424C229.455 72.232 228.999 72.136 228.423 72.136H226.155V76.834C226.155 77.062 226.089 77.248 225.957 77.392C225.825 77.524 225.651 77.59 225.435 77.59C225.207 77.59 225.027 77.524 224.895 77.392C224.763 77.248 224.697 77.062 224.697 76.834V65.53C224.697 65.314 224.763 65.14 224.895 65.008C225.039 64.876 225.225 64.81 225.453 64.81H229.917C231.297 64.81 232.347 65.116 233.067 65.728C233.799 66.34 234.165 67.24 234.165 68.428C234.165 69.436 233.871 70.246 233.283 70.858C232.707 71.47 231.879 71.842 230.799 71.974C231.099 72.07 231.369 72.226 231.609 72.442C231.849 72.658 232.089 72.958 232.329 73.342L234.381 76.582ZM229.791 70.912C230.775 70.912 231.507 70.708 231.987 70.3C232.479 69.892 232.725 69.274 232.725 68.446C232.725 67.63 232.485 67.024 232.005 66.628C231.525 66.232 230.787 66.034 229.791 66.034H226.155V70.912H229.791ZM252.603 76.654C252.651 76.75 252.675 76.852 252.675 76.96C252.675 77.14 252.603 77.29 252.459 77.41C252.327 77.53 252.165 77.59 251.973 77.59C251.673 77.59 251.463 77.446 251.343 77.158L250.065 74.242H243.279L241.983 77.158C241.863 77.446 241.653 77.59 241.353 77.59C241.161 77.59 240.993 77.53 240.849 77.41C240.705 77.278 240.633 77.122 240.633 76.942C240.633 76.846 240.657 76.75 240.705 76.654L245.853 65.206C245.925 65.038 246.033 64.912 246.177 64.828C246.321 64.744 246.477 64.702 246.645 64.702C246.825 64.702 246.987 64.75 247.131 64.846C247.275 64.93 247.383 65.05 247.455 65.206L252.603 76.654ZM243.819 73.018H249.525L246.663 66.556L243.819 73.018ZM268.882 64.72C269.098 64.72 269.266 64.792 269.386 64.936C269.506 65.068 269.566 65.248 269.566 65.476V76.834C269.566 77.062 269.5 77.248 269.368 77.392C269.248 77.524 269.074 77.59 268.846 77.59C268.618 77.59 268.42 77.488 268.252 77.284L260.782 67.294V76.834C260.782 77.062 260.716 77.248 260.584 77.392C260.464 77.524 260.296 77.59 260.08 77.59C259.864 77.59 259.696 77.524 259.576 77.392C259.456 77.248 259.396 77.062 259.396 76.834V65.476C259.396 65.248 259.456 65.068 259.576 64.936C259.708 64.792 259.888 64.72 260.116 64.72C260.356 64.72 260.56 64.822 260.728 65.026L268.18 75.016V65.476C268.18 65.248 268.24 65.068 268.36 64.936C268.492 64.792 268.666 64.72 268.882 64.72ZM281.159 77.59C280.931 77.59 280.745 77.524 280.601 77.392C280.469 77.248 280.403 77.062 280.403 76.834V66.07H276.533C276.317 66.07 276.149 66.016 276.029 65.908C275.909 65.8 275.849 65.644 275.849 65.44C275.849 65.236 275.909 65.08 276.029 64.972C276.149 64.864 276.317 64.81 276.533 64.81H285.767C285.983 64.81 286.151 64.864 286.271 64.972C286.391 65.08 286.451 65.236 286.451 65.44C286.451 65.644 286.391 65.8 286.271 65.908C286.151 66.016 285.983 66.07 285.767 66.07H281.897V76.834C281.897 77.062 281.831 77.248 281.699 77.392C281.567 77.524 281.387 77.59 281.159 77.59Z" fill="#4D4D4D"/>
<path d="M148.884 53H133.62V50.312H138.564V22.088H129.972L129.012 23.144V29.336H125.556V19.4H156.948V29.336H153.492V23.144L152.532 22.088H143.94V50.312H148.884V53ZM188.832 53H177.072V50.6H180.24V38.792C180.24 36.136 179.888 34.104 179.184 32.696C178.48 31.256 177.232 30.536 175.44 30.536C174.48 30.536 173.584 30.696 172.752 31.016C171.92 31.336 171.184 31.752 170.544 32.264C169.904 32.776 169.344 33.352 168.864 33.992C168.416 34.6 168.08 35.208 167.856 35.816V50.6H171.024V53H159.264V50.6H162.816V19.4H158.736V17H167.856V32.888H167.904C168.64 31.32 169.792 30.008 171.36 28.952C172.96 27.864 174.864 27.32 177.072 27.32C178.32 27.32 179.456 27.48 180.48 27.8C181.504 28.088 182.368 28.632 183.072 29.432C183.776 30.232 184.32 31.304 184.704 32.648C185.088 33.992 185.28 35.704 185.28 37.784V50.6H188.832V53ZM212.022 46.328C212.022 47.064 212.038 47.816 212.07 48.584C212.102 49.32 212.15 49.992 212.214 50.6H215.382V53H207.846L207.366 48.44H207.126C206.966 49.08 206.662 49.704 206.214 50.312C205.798 50.92 205.254 51.464 204.582 51.944C203.942 52.424 203.174 52.808 202.278 53.096C201.382 53.384 200.39 53.528 199.302 53.528C198.214 53.528 197.206 53.368 196.278 53.048C195.382 52.728 194.598 52.28 193.926 51.704C193.254 51.128 192.726 50.44 192.342 49.64C191.99 48.808 191.814 47.88 191.814 46.856C191.814 45.288 192.134 43.992 192.774 42.968C193.446 41.944 194.422 41.144 195.702 40.568C196.982 39.96 198.582 39.528 200.502 39.272C202.422 39.016 204.662 38.872 207.222 38.84C207.286 38.328 207.318 37.848 207.318 37.4C207.318 36.92 207.318 36.456 207.318 36.008C207.318 34.024 206.982 32.52 206.31 31.496C205.638 30.44 204.438 29.912 202.71 29.912C202.07 29.912 201.382 29.944 200.646 30.008C199.91 30.072 199.238 30.264 198.63 30.584V35H194.31V29.672C195.462 29.064 196.822 28.52 198.39 28.04C199.958 27.56 201.798 27.32 203.91 27.32C205.734 27.32 207.19 27.56 208.278 28.04C209.398 28.488 210.246 29.096 210.822 29.864C211.43 30.6 211.814 31.448 211.974 32.408C212.166 33.336 212.262 34.264 212.262 35.192C212.262 37.208 212.214 39.144 212.118 41C212.054 42.824 212.022 44.6 212.022 46.328ZM201.51 50.312C202.278 50.312 202.966 50.2 203.574 49.976C204.182 49.72 204.71 49.416 205.158 49.064C205.638 48.68 206.038 48.264 206.358 47.816C206.71 47.368 206.998 46.936 207.222 46.52V40.808C205.142 40.808 203.446 40.952 202.134 41.24C200.854 41.496 199.846 41.848 199.11 42.296C198.374 42.744 197.862 43.288 197.574 43.928C197.318 44.536 197.19 45.192 197.19 45.896C197.19 47.336 197.574 48.44 198.342 49.208C199.11 49.944 200.166 50.312 201.51 50.312ZM231.382 53H219.238V50.6H222.79V30.2H219.238V27.8H227.83V50.6H231.382V53ZM221.734 20.024C221.734 19.096 222.054 18.36 222.694 17.816C223.366 17.272 224.214 17 225.238 17C226.326 17 227.174 17.272 227.782 17.816C228.422 18.36 228.742 19.096 228.742 20.024C228.742 20.952 228.422 21.688 227.782 22.232C227.174 22.776 226.326 23.048 225.238 23.048C224.214 23.048 223.366 22.776 222.694 22.232C222.054 21.688 221.734 20.952 221.734 20.024ZM234.88 22.088V19.4H239.872C241.312 19.4 242.864 19.336 244.528 19.208C246.224 19.08 247.856 19.016 249.424 19.016C251.184 19.016 252.912 19.192 254.608 19.544C256.304 19.864 257.808 20.424 259.12 21.224C260.432 22.024 261.488 23.096 262.288 24.44C263.12 25.752 263.536 27.4 263.536 29.384C263.536 31.272 263.12 32.904 262.288 34.28C261.456 35.624 260.352 36.728 258.976 37.592C257.632 38.456 256.064 39.096 254.272 39.512C252.512 39.928 250.688 40.136 248.8 40.136C248.608 40.136 248.32 40.136 247.936 40.136C247.552 40.136 247.136 40.136 246.688 40.136C246.272 40.104 245.872 40.072 245.488 40.04C245.104 40.008 244.816 39.976 244.624 39.944V50.312H249.424V53H234.88V50.312H239.248V22.088H234.88ZM244.624 37.208C244.784 37.272 245.024 37.32 245.344 37.352C245.696 37.352 246.064 37.368 246.448 37.4C246.832 37.432 247.2 37.448 247.552 37.448C247.936 37.448 248.224 37.448 248.416 37.448C249.664 37.448 250.832 37.304 251.92 37.016C253.04 36.696 254.016 36.216 254.848 35.576C255.68 34.936 256.336 34.104 256.816 33.08C257.296 32.056 257.536 30.824 257.536 29.384C257.536 26.76 256.704 24.824 255.04 23.576C253.408 22.328 251.168 21.704 248.32 21.704C247.456 21.704 246.736 21.736 246.16 21.8C245.584 21.832 245.072 21.896 244.624 21.992V37.208ZM296.175 53H284.415V50.6H287.583V38.792C287.583 36.136 287.231 34.104 286.527 32.696C285.823 31.256 284.575 30.536 282.783 30.536C281.823 30.536 280.927 30.696 280.095 31.016C279.263 31.336 278.527 31.752 277.887 32.264C277.247 32.776 276.687 33.352 276.207 33.992C275.759 34.6 275.423 35.208 275.199 35.816V50.6H278.367V53H266.607V50.6H270.159V19.4H266.079V17H275.199V32.888H275.247C275.983 31.32 277.135 30.008 278.703 28.952C280.303 27.864 282.207 27.32 284.415 27.32C285.663 27.32 286.799 27.48 287.823 27.8C288.847 28.088 289.711 28.632 290.415 29.432C291.119 30.232 291.663 31.304 292.047 32.648C292.431 33.992 292.623 35.704 292.623 37.784V50.6H296.175V53ZM301.27 43.016C301.27 40.904 301.318 38.744 301.414 36.536C301.51 34.328 301.558 32.216 301.558 30.2H298.006V27.8H306.55C306.486 30.296 306.422 32.696 306.358 35C306.326 37.272 306.31 39.64 306.31 42.104C306.31 43.416 306.374 44.584 306.502 45.608C306.662 46.6 306.934 47.448 307.318 48.152C307.734 48.856 308.294 49.384 308.998 49.736C309.702 50.088 310.598 50.264 311.686 50.264C313.286 50.264 314.63 49.752 315.718 48.728C316.806 47.704 317.638 46.328 318.214 44.6V30.2H314.71V27.8H323.254V50.6H326.806V53H318.79L318.454 47.528H318.214C318.054 48.2 317.734 48.888 317.254 49.592C316.806 50.296 316.23 50.936 315.526 51.512C314.822 52.088 314.006 52.568 313.078 52.952C312.15 53.304 311.142 53.48 310.054 53.48C308.614 53.48 307.35 53.32 306.262 53C305.174 52.712 304.262 52.168 303.526 51.368C302.79 50.568 302.23 49.496 301.846 48.152C301.462 46.808 301.27 45.096 301.27 43.016ZM343.388 27.8H353.948V30.2H350.876L343.436 38.792L353.228 50.6H355.628V53H348.716L339.788 41.048H338.012V50.6H341.564V53H329.42V50.6H332.972V19.4H328.892V17H338.012V39.128H339.692L347.036 30.2H343.388V27.8ZM379.452 49.688C378.62 50.872 377.436 51.816 375.9 52.52C374.396 53.192 372.636 53.528 370.62 53.528C368.508 53.528 366.636 53.224 365.004 52.616C363.404 51.976 362.06 51.096 360.972 49.976C359.884 48.824 359.052 47.448 358.476 45.848C357.932 44.216 357.66 42.408 357.66 40.424C357.66 36.136 358.732 32.888 360.876 30.68C363.02 28.44 366.028 27.32 369.9 27.32C371.18 27.32 372.428 27.48 373.644 27.8C374.892 28.12 375.996 28.648 376.956 29.384C377.916 30.12 378.684 31.096 379.26 32.312C379.868 33.528 380.172 35.032 380.172 36.824C380.172 37.368 380.14 37.944 380.076 38.552C380.012 39.16 379.916 39.8 379.788 40.472H363.084C363.084 41.88 363.26 43.16 363.612 44.312C363.996 45.464 364.556 46.456 365.292 47.288C366.06 48.12 367.004 48.776 368.124 49.256C369.244 49.704 370.572 49.928 372.108 49.928C373.356 49.928 374.508 49.72 375.564 49.304C376.652 48.888 377.516 48.408 378.156 47.864L379.452 49.688ZM369.708 29.576C368.716 29.576 367.836 29.72 367.068 30.008C366.332 30.296 365.692 30.776 365.148 31.448C364.604 32.12 364.172 33.016 363.852 34.136C363.532 35.224 363.324 36.584 363.228 38.216H374.796C374.828 37.928 374.844 37.64 374.844 37.352C374.876 37.032 374.892 36.744 374.892 36.488C374.892 34.376 374.46 32.696 373.596 31.448C372.764 30.2 371.468 29.576 369.708 29.576ZM383.504 27.8H387.776V21.8H392.816V27.8H400.784V30.872H392.816V44.888C392.816 46.904 393.072 48.328 393.584 49.16C394.096 49.992 394.928 50.408 396.08 50.408C397.072 50.408 397.92 50.232 398.624 49.88C399.36 49.528 400.032 49.144 400.64 48.728L401.84 50.6C401.552 50.888 401.152 51.208 400.64 51.56C400.16 51.88 399.6 52.184 398.96 52.472C398.32 52.76 397.6 53 396.799 53.192C396.032 53.384 395.232 53.48 394.4 53.48C392.256 53.48 390.608 52.936 389.456 51.848C388.336 50.728 387.776 48.888 387.776 46.328V30.872H383.504V27.8Z" fill="#4D4D4D"/>
<path d="M3 45.8571V45.8571C3 22.1878 22.1878 3 45.8571 3H46.4164" stroke="#B37A64" stroke-width="5"/>
<path d="M45.7046 103V103C22.1195 103 3 83.8805 3 60.2954V59.4286" stroke="#B37A64" stroke-width="5"/>
<path d="M103 60.1429V60.1429C103 83.8122 83.8122 103 60.1429 103H59.5836" stroke="#B37A64" stroke-width="5"/>
<path d="M60.2954 3V3C83.8805 3 103 22.1195 103 45.7046V46.5714" stroke="#B37A64" stroke-width="5"/>
<path d="M38.9431 53C38.9431 60.8617 45.3162 67.2857 53.1779 67.2857C61.0396 67.2857 67.4128 60.8617 67.4128 53C67.4128 45.1383 61.0396 38.7143 53.1779 38.7143C45.3162 38.7143 38.9431 45.1383 38.9431 53Z" stroke="#B37A64" stroke-width="5"/>
<path d="M88.2252 60.5H88.7397C92.6846 60.5 95.8826 57.302 95.8826 53.3571C95.8826 49.4123 92.6755 46.2143 88.7306 46.2143C72.85 46.2143 59.9395 33.1805 59.9395 17.2999C59.9395 13.369 56.7529 10.1429 52.8221 10.1429C48.8912 10.1429 45.7046 13.3294 45.7046 17.2603V18.0292C45.7046 33.5954 33.0858 46.2143 17.5196 46.2143C13.628 46.2143 10.4733 49.369 10.4733 53.2605V53.4537C10.4733 57.3453 13.628 60.5 17.5196 60.5C33.0858 60.5 45.7046 73.1993 45.7046 88.7655C45.7046 92.671 48.9166 95.8571 52.8221 95.8571C56.7275 95.8571 59.9395 92.6912 59.9395 88.7857C59.9395 73.1639 72.6034 60.5 88.2252 60.5Z" stroke="#B37A64" stroke-width="5"/>
</svg>
