<svg width="244" height="244" viewBox="0 0 244 244" fill="none" xmlns="http://www.w3.org/2000/svg">
<path d="M220.2 143H222C233.046 143 242 134.046 242 123C242 111.954 233.006 103 221.96 103C177.336 103 141 66.6643 141 22.0397C141 10.994 132.046 2 121 2C109.954 2 101 10.9543 101 22V23.8C101 67.5409 65.5409 103 21.8 103C10.8648 103 2 112.065 2 123C2 133.935 10.8648 143 21.8 143C65.541 143 101 178.459 101 222.2C101 233.135 110.065 242 121 242C131.935 242 141 233.135 141 222.2C141 178.459 176.459 143 220.2 143Z" stroke="#B37A64" stroke-width="3"/>
</svg>
